<svg width="700" height="800" viewBox="0 0 700 800" fill="none" xmlns="http://www.w3.org/2000/svg">
<path d="M63.6194 470.531L270.463 226H403.901L186.663 481.715C165.449 507.032 160.355 550.064 186.03 574.546H70.1964C31.1598 549.012 36.2434 503.019 63.6194 470.531Z" fill="#EEF0F2"/>
<path d="M629.624 574.543H513.79C539.247 550.071 534.154 506.823 512.939 481.711C512.939 481.711 377.157 319.045 365.081 304.488L431.256 226.843L636.201 470.321C663.142 503.016 668.66 549.009 629.624 574.543Z" fill="#EEF0F2"/>
<path d="M459.472 508.09C443.361 525.805 418.102 532.139 400.082 532.139C369.106 532.139 355.744 555.342 354.676 559.975C354.043 562.719 354.676 566.742 350.651 566.742C347.041 566.742 347.466 562.512 346.833 559.975C345.557 555.342 332.403 532.139 301.437 532.139C283.397 532.139 258.158 525.795 242.037 508.09C229.723 494.792 224.422 477.068 226.123 455.547C245.854 451.12 266.861 453.019 279.362 454.071C315.432 457.022 340.039 487.395 350.651 519.903C362.104 486.972 385.444 457.229 422.147 454.071C434.668 453.019 455.675 451.12 475.396 455.547C477.087 477.058 471.786 494.792 459.472 508.09Z" fill="#EEF0F2"/>
<path d="M379.708 443.315C370.817 459.987 358.919 474.967 350.651 492.259C342.798 475.184 330.702 459.771 321.584 443.315C317.133 434.876 297.185 390.781 350.651 335.287C404.325 390.781 384.169 434.876 379.708 443.315Z" fill="#EEF0F2"/>
</svg>
