<svg width="700" height="800" viewBox="0 0 700 800" fill="none" xmlns="http://www.w3.org/2000/svg">
<path d="M443.132 673.108C288.09 703.636 126.386 640.677 88.4165 447.843C57.4893 290.664 139.91 148.811 315.08 114.32C358.94 105.684 396.428 109.918 424.091 119.529L431.803 96.865L551.848 73.228L595.453 294.681L494.708 314.518C484.959 265.005 445.332 219.868 389.171 230.927C341.419 240.329 294.72 277.919 317.831 395.292L322.944 421.26C346.471 540.746 395.533 560.061 454.758 548.4C499.964 539.499 527.193 497.418 519.201 456.83L516.323 442.21L624.751 420.861L652.502 561.8C611.886 601.225 531.867 655.636 443.132 673.108Z" fill="#EEF0F2"/>
</svg>
