<svg width="700" height="800" viewBox="0 0 700 800" fill="none" xmlns="http://www.w3.org/2000/svg">
<path d="M507.741 395.249C558.331 387.215 599.696 379.18 624.396 373.526L661 350.018C619.337 357.755 569.64 368.765 526.191 373.824C556.248 336.032 607.731 279.195 631.836 258.365C637.788 253.306 641.954 253.306 644.037 249.735C646.418 245.569 640.169 241.701 634.217 237.832C631.241 235.749 622.908 232.476 618.742 233.071C611.898 233.964 605.648 241.106 602.375 244.081C567.854 277.41 525.894 324.724 479.767 380.668C417.273 390.19 385.134 396.44 343.769 401.498C365.493 375.014 438.997 291.098 453.282 279.79C458.341 275.922 460.722 275.922 461.614 272.946C462.805 268.185 454.175 262.829 444.652 257.472C437.807 253.604 429.475 259.853 425.011 264.614C419.059 270.863 338.412 360.731 301.808 405.069C240.207 410.723 109.267 423.221 96.7685 420.841C89.3287 419.353 91.4119 416.675 75.6396 416.377C64.6287 416.079 49.7492 416.079 45.2854 416.972C40.2263 418.162 34.8697 417.27 40.2263 425.899C42.9046 430.661 51.5348 444.647 67.0095 444.647C130.694 444.647 211.936 435.124 284.846 426.495C268.478 447.92 227.113 506.245 208.96 538.085C205.389 544.036 203.008 548.5 204.794 552.369C206.877 556.535 216.102 563.974 221.161 566.057C226.22 568.14 227.411 566.95 231.577 560.701C249.432 533.324 290.5 466.667 326.211 423.816C373.825 418.162 401.204 412.211 461.912 402.391C438.7 431.256 404.775 473.511 372.932 525.884C369.064 532.431 367.576 536.895 371.742 541.656C374.718 544.632 381.563 548.5 384.538 554.154C386.324 557.13 391.085 560.105 394.954 555.939C398.525 552.071 403.287 539.573 408.941 530.348C434.236 488.688 469.649 441.373 507.741 395.249Z" fill="#EEF0F2"/>
</svg>
