<svg width="700" height="800" viewBox="0 0 700 800" fill="none" xmlns="http://www.w3.org/2000/svg">
<path fill-rule="evenodd" clip-rule="evenodd" d="M513.522 277.457C489.741 282.858 456.604 305.853 427.27 328.975L427.315 328.736L427.315 328.735C427.731 326.51 428.144 324.297 428.487 321.8C428.842 319.214 429.273 315.918 429.628 313.028C430.921 302.887 431.479 292.644 431.276 282.401C430.693 256.161 424.101 237.779 414.543 225.99C407.748 218.181 395.908 217.345 388.074 224.139C387.415 224.722 386.806 225.331 386.223 225.99L385.361 226.852C382.775 229.869 383.13 234.407 386.122 236.993C386.578 237.399 387.11 237.729 387.643 238.007C392.511 240.137 396.669 243.636 399.584 248.073C418.777 276.823 411.374 323.677 392.409 358.183L390.083 360.265C404.265 328.017 407.786 289.208 391.068 264.194C382.169 250.833 366.551 249.819 351.466 252.76C322.715 261.532 312.092 272.89 312.092 272.89C312.092 272.89 257.557 212.296 227.438 254.864L225.79 257.374C218.068 283.574 222.66 319.217 236.318 348.838C222.547 319.154 217.863 283.358 225.534 257.022C227.359 250.431 230.3 244.168 234.23 238.54C253.856 210.788 275.828 224.554 297.057 237.855L297.058 237.856C300.401 239.95 303.725 242.033 307.019 243.94L308.743 245.081C311.431 246.83 315.056 246.07 316.806 243.357C317.465 242.343 317.794 241.177 317.744 239.985C317.744 229.058 320.482 195.287 335.922 173.432C327.454 161.795 309.631 152.313 305.726 159.488C300.326 169.401 302.43 204.617 304.636 221.655C258.569 184.005 175.765 194.932 198.836 309.124C202.513 327.936 208.876 346.114 217.75 363.101C211.285 360.515 204.237 358.005 196.2 355.926L193.538 355.064V352.478C192.954 339.472 187.884 327.074 179.162 317.414C143.794 272.868 83.7322 234.686 35.4341 256.186C27.4985 260.09 21.9208 267.544 20.4249 276.24C13.1739 308.642 32.0621 380.519 112.711 474.732C147.141 515.12 267.95 646.78 373.597 643.915C393.221 643.408 408.813 637.526 416.292 627.74C441.443 595.186 430.008 559.894 416.292 536.036C404.427 516.692 389.342 499.528 371.67 485.304C374.561 483.403 377.324 481.375 380.011 479.194C410.055 507.945 459.063 551.705 507.64 545.088C600.357 534.819 680.119 382.877 680.626 380.95C680.489 380.854 679.77 379.982 678.524 378.469L678.522 378.466C664.573 361.531 584.572 264.402 513.522 277.457ZM280.133 319.847C280.005 319.61 279.888 319.37 279.78 319.127C279.87 319.319 279.966 319.508 280.069 319.696L280.133 319.847ZM283.32 327.21C282.137 324.515 281.145 322.254 280.418 320.515C281.042 321.961 281.837 323.747 282.762 325.827L282.762 325.828C288.741 339.271 300.17 364.97 306.171 390.383C300.254 365.791 289.332 340.907 283.322 327.216L283.32 327.21ZM396.795 549.119C416.495 587.276 414.543 614.53 406.861 621.629C402.196 625.939 378.541 622.846 375.879 622.491L372.507 621.984C346.646 617.953 297.537 605.099 238.464 563.697C169.173 515.12 106.449 441.95 52.1166 346.292C41.3218 327.198 35.249 311.381 33.9635 298.956C35.3068 311.329 41.3698 327.06 52.0888 346.063C106.421 441.722 169.171 514.892 238.436 563.469C297.509 604.871 346.593 617.725 372.479 621.756C380.541 620.007 387.387 614.733 391.164 607.381C395.806 597.089 398.314 551.134 338.46 503.325C343.108 501.244 347.706 499.083 352.173 496.637C370.149 511.241 385.285 529.039 396.795 549.119ZM41.1615 276.418C40.3857 276.617 39.6293 276.875 38.8922 277.157L39.8963 275.936C48.2375 266.657 64.2609 264.857 84.8731 270.916C122.092 281.843 163.925 314.676 166.232 346.089V350.044H161.998C150.817 349.258 139.636 351.185 129.368 355.647C126.072 357.092 123.131 359.222 120.748 361.909C120.203 362.501 119.732 363.148 119.34 363.838C119.774 362.996 120.323 362.21 120.974 361.504C123.382 358.842 126.323 356.686 129.594 355.241C126.653 353.72 124.853 352.579 125.005 352.224C128.808 339.142 122.14 325.502 113.444 314.777C99.9559 298.374 82.2593 285.976 62.2808 278.852C55.6383 275.936 48.2858 275.074 41.1615 276.418ZM167.397 372.145C165.863 371.474 164.232 370.759 162.539 370.016C190.23 372.844 216.959 381.659 240.898 395.883C263.741 419.741 290.337 428.944 309.96 424.634C309.428 431.986 307.957 439.212 305.574 446.184C285.52 437.513 264.324 431.859 242.622 429.375C234.534 428.564 226.396 428.335 218.257 428.716C211.664 429.078 209.955 431.578 209.413 433.041C209.419 432.968 209.425 432.896 209.432 432.823C209.432 431.682 210.649 428.234 218.483 427.803C226.621 427.422 234.76 427.625 242.847 428.462C242.847 420.628 237.751 415.658 227.61 408.052C212.119 396.415 195.716 386.096 178.526 377.147C177.353 376.503 173.043 374.616 167.41 372.151L167.408 372.15L167.407 372.149L167.406 372.149L167.397 372.145ZM269.658 462.227C261.426 457.994 253.043 453.683 246.982 450.446C264.837 450.829 282.421 454.742 298.754 461.979C296.447 466.441 294.089 470.599 291.579 474.631C283.669 486.673 274.719 498.032 264.857 508.553C264.511 509.154 264.24 509.782 264.044 510.425C264.232 509.466 264.577 508.525 265.082 507.641C274.945 497.119 283.894 485.761 291.805 473.718L291.095 473.363C285.649 470.449 277.727 466.375 269.659 462.227L269.658 462.227ZM506.829 522.016C465.148 527.695 419.588 494.051 391.852 467.963L385.462 461.776L379.205 455.469C381.163 453.599 383.029 451.639 384.803 449.606C500.794 568.843 583.294 485.025 623.555 378.819C620.238 376.483 615.673 372.066 610.05 366.625C595.905 352.938 575.065 332.773 550.538 322.941C489.373 302.002 427.107 363.612 387.902 402.405L387.867 402.44C386.733 403.561 385.619 404.664 384.524 405.745L376.411 397.987C373.825 395.122 370.884 392.155 367.994 389.443C310.899 344.606 312.307 347.73 323.37 372.274C334.362 396.661 354.885 442.196 337.023 482.844L336.15 483.175C332.347 484.823 315.031 490.781 313.155 491.288C324.158 469.636 329.127 445.449 327.53 421.211C324.642 384.563 304.4 338.652 301.608 332.32L301.605 332.314C301.409 331.868 301.299 331.62 301.289 331.587C314.917 341 334.063 358.366 349.202 372.097C354.737 377.117 359.737 381.651 363.735 385.133L366.245 387.364L368.476 389.443L370.276 391.167C372.532 393.322 374.611 395.477 376.538 397.632C376.574 397.593 376.659 397.495 376.792 397.341L376.794 397.339C381.811 391.566 454.569 307.851 523.359 301.974C576.181 297.363 628.981 365.942 641.019 381.577C642.085 382.962 642.832 383.932 643.23 384.398C640.137 392.739 577.768 513.624 506.829 522.016ZM358.789 471.695L359.146 471.487L360.946 470.346L362.67 469.205L363.963 468.343L366.904 466.188C369.11 464.616 371.265 462.917 373.293 461.092C374.231 460.306 375.093 459.571 375.879 458.785L378.262 456.401L378.996 455.667C378.728 455.922 378.458 456.175 378.186 456.426C372.214 462.144 365.717 467.253 358.789 471.695ZM337.642 249.717C332.191 251.517 328.464 252.455 327.805 251.517C326.36 249.362 327.298 166.836 392.025 170.437C393.115 170.513 394.332 174.113 394.763 179.64C395.676 192.824 391.695 205.881 383.557 216.301C371.159 230.955 355.415 242.44 337.642 249.717ZM538.95 368.222C545.657 368.222 551.094 362.784 551.094 356.077C551.094 349.37 545.657 343.933 538.95 343.933C532.243 343.933 526.806 349.37 526.806 356.077C526.806 362.784 532.243 368.222 538.95 368.222Z" fill="#EEF0F2"/>
</svg>
