<svg width="700" height="800" viewBox="0 0 700 800" fill="none" xmlns="http://www.w3.org/2000/svg">
<path d="M560.733 564.259C506.061 594.192 454.032 609.111 365.934 612.699C317.683 611.944 285.956 611.472 258.1 606.939C207.866 598.913 182.749 585.221 182.749 585.221C182.749 585.221 254.323 604.106 361.968 597.402C509.082 588.243 634.29 514.875 634.101 410.818C633.912 348.876 593.309 282.306 541.375 250.674C491.33 220.174 452.049 209.41 415.79 201.384C370.749 191.186 295.776 191.375 276.419 194.585C383.686 177.022 474.806 195.813 556.956 236.415C619.182 267.104 667.055 338.867 670.832 391.367C676.403 465.396 636.934 522.429 560.733 564.259ZM544.964 541.975C528.25 548.962 432.126 582.011 326.842 580.689C271.981 579.934 194.836 563.126 148.001 536.404C99.1831 508.643 63.3016 452.46 61.6964 395.805C59.0525 300.625 166.414 222.157 301.536 210.543C357.53 205.727 396.811 212.904 422.966 216.303C461.397 221.307 531.083 247.652 531.083 247.652C531.083 247.652 427.404 189.014 309.373 197.607C228.262 203.367 175.762 220.552 126.094 249.446C56.8807 289.671 22.0379 342.927 28.8365 410.535C33.6522 458.409 71.8943 519.407 126.755 551.701C169.813 577.006 233.078 594.758 325.898 594.758C413.996 594.57 486.798 566.62 544.964 541.975ZM210.793 365.117C218.159 335.184 232.322 272.958 232.322 272.958H190.303C190.303 272.958 177.934 327.158 170.568 353.502C169.341 357.94 167.169 363.323 162.353 364.078C148.756 364.456 121.656 364.456 121.656 364.456L115.235 393.35C115.235 393.35 172.268 393.728 180.2 390.989C193.703 387.401 205.034 378.62 210.793 365.117ZM254.135 397.221C245.92 397.221 238.743 394.672 233.55 390.989C226.751 385.985 223.352 378.431 222.597 371.066C222.597 369.649 222.597 366.061 223.163 360.868C223.919 356.052 225.335 349.348 227.79 342.927C240.349 310.256 263.672 308.651 273.303 308.651C289.827 308.651 298.42 316.866 302.008 325.175C307.013 337.356 304.652 348.687 302.008 358.507H245.731V358.696C244.314 363.134 243.37 367.855 245.542 372.104C249.13 378.903 255.929 380.508 262.444 379.469C268.865 378.242 275.191 374.465 277.174 370.121H298.703C291.432 386.362 269.054 397.221 254.135 397.221ZM248.941 344.154H282.462C283.69 337.922 283.878 327.252 270.942 326.78C257.723 326.214 250.546 336.317 248.941 344.154ZM371.505 393.539H393.884L435.525 310.161H412.957L387.085 368.61L387.463 310.161H364.801L339.873 368.61L339.306 310.161H316.55L322.121 393.539H344.688L370.655 334.901L371.505 393.539ZM459.509 397.221C451.294 397.221 443.929 394.672 438.924 390.989C432.315 385.985 428.726 378.431 427.971 371.066C427.971 369.649 427.971 366.061 428.538 360.868C429.293 356.052 430.709 349.348 433.164 342.927C445.723 310.256 469.046 308.651 478.677 308.651C495.202 308.651 503.794 316.866 507.382 325.175C512.387 337.356 509.932 348.687 507.382 358.507H451.105V358.696C449.689 363.134 448.745 367.855 450.916 372.104C454.504 378.903 461.303 380.508 467.818 379.469C474.239 378.242 480.566 374.465 482.549 370.121H504.078C496.807 386.362 474.428 397.221 459.509 397.221ZM454.316 344.154H487.836C489.253 337.922 489.253 327.252 476.317 326.78C463.097 326.214 455.921 336.317 454.316 344.154ZM513.709 393.539H535.616L559.788 281.267H537.882L513.709 393.539ZM147.812 463.13C159.426 411.291 202.012 405.059 217.592 405.059C233.172 405.059 272.831 411.291 261.028 463.13C249.224 515.158 206.828 521.39 191.248 521.39C175.573 521.39 135.914 515.064 147.812 463.13ZM195.497 501.844C208.811 501.844 229.206 494.101 236.194 463.13C243.181 432.159 226.185 424.605 212.871 424.605C199.557 424.605 179.161 432.347 172.174 463.13C165.375 494.29 182.277 501.844 195.497 501.844ZM349.409 461.43C352.809 438.296 333.263 434.33 316.266 434.33C288.977 434.33 277.552 449.722 274.814 461.808C267.826 492.496 324.292 482.298 321.271 495.895C320.515 498.917 316.644 504.299 304.746 504.299C290.205 504.299 286.806 499.295 288.411 492.307H264.71C260.555 514.214 280.479 520.635 300.403 520.635C314 520.635 339.684 516.291 345.066 492.496C351.864 462.375 295.209 471.723 298.042 458.786C298.892 455.198 301.442 450.76 314 450.76C326.37 450.76 327.125 456.331 326.936 461.525H349.409V461.43ZM441.568 465.963C445.345 440.468 424.005 434.614 410.219 434.614C380.664 434.614 363.951 453.404 358.002 480.032C354.225 497.217 356.397 520.918 389.257 520.918C421.361 520.918 433.731 497.217 436.469 488.814H412.769C411.919 492.779 405.592 503.166 393.978 503.166C376.604 503.166 380.381 485.414 382.364 476.444C384.724 466.246 391.712 452.743 406.064 452.743C417.018 451.988 418.623 460.675 418.434 466.057H441.568V465.963ZM448.084 477.577C454.693 448.022 479.149 434.33 502.567 434.33C525.984 434.33 544.208 447.739 537.504 477.577C530.705 507.038 506.438 520.635 483.021 520.635C459.603 520.635 441.379 507.038 448.084 477.577ZM487.175 502.6C504.927 502.6 511.348 488.058 513.898 477.671C516.258 467.096 516.258 452.743 498.507 452.743C480.755 452.743 474.334 467.285 471.784 477.671C469.424 488.058 469.424 502.6 487.175 502.6ZM553.179 509.398H549.779V493.063H556.389C560.733 493.063 563.188 494.29 563.188 497.878C563.188 500.711 561.205 502.033 558.75 502.222L563.376 509.398H559.788L555.445 502.411H553.084L553.179 509.398ZM553.179 500.05H556.578C558.372 500.05 559.977 499.861 559.977 497.689C559.977 495.707 557.994 495.518 556.389 495.518H553.179V500.05ZM556.011 486.453C564.415 486.453 571.969 492.213 571.969 501.183C571.969 510.154 564.415 515.914 556.011 515.914C547.796 515.914 540.053 510.154 540.053 501.183C540.053 492.118 547.607 486.453 556.011 486.453ZM544.019 501.278C544.019 507.699 549.213 512.892 556.011 512.892C562.81 512.892 568.192 507.699 568.192 501.278C568.192 494.857 562.999 489.475 556.011 489.475C549.213 489.475 544.019 494.668 544.019 501.278Z" fill="#EEF0F2"/>
</svg>
