<svg width="700" height="800" viewBox="0 0 700 800" fill="none" xmlns="http://www.w3.org/2000/svg">
<g clip-path="url(#clip0_272_1358)">
<path d="M685.947 392.633C678.814 384.185 665.067 352.672 665.067 352.672L658.406 336.661L650.728 316.182C644.507 298.536 634.2 271.988 634.2 271.988C633.063 268.942 629.806 269.51 629.806 269.51C607.85 272.173 604.753 283.472 604.753 283.472C600.273 293.771 608.916 311.915 608.916 311.915C613.68 322.268 616.832 335.963 616.832 335.963C620.453 350.793 616.24 357.209 616.24 357.209C608.11 372.519 594.413 367.591 594.413 367.591C586.312 366.555 581.29 353.504 581.29 353.504L568.827 323.547C560.489 300.563 546.783 303.513 546.783 303.513C534.899 305.272 526.512 312.308 526.512 312.308C526.512 312.308 523.453 314.447 524.53 317.286C526.627 322.808 535.827 342.046 535.827 342.046C544.464 360.42 556.758 379.439 556.758 379.439L553.155 386.087C546.204 396.879 541.535 400.912 541.535 400.912C534.872 408.603 527.135 407.768 527.135 407.768C518.684 407.486 499.376 397.708 499.376 397.708C494.115 395.41 499.464 392.954 499.464 392.954C518.183 383.613 518.365 362.92 518.365 362.92C515.931 330.421 486.676 331.098 486.676 331.098C466.727 331.906 454.819 347.082 454.819 347.082C449.846 352.336 445.637 364.639 445.637 364.639C443.361 369.768 440.59 364.086 440.59 364.086L413.305 298.502C405.168 279.793 382.693 291.999 382.693 291.999C373.363 296.458 374.549 298.572 374.549 298.572L406.985 376.538C422.673 413.155 422.715 416.985 422.715 416.985C426.042 430.739 398.689 455.217 398.689 455.217C391.882 462.073 376.069 467.127 376.069 467.127C367.369 469.982 361.388 464.242 361.388 464.242C352.688 459.197 344.266 433.928 344.266 433.928C335.93 412.78 352.515 408.427 352.515 408.427C361.575 405.091 366.82 421.129 366.82 421.129C373.532 434.136 389.243 425.41 389.243 425.41C399.541 421.126 394.954 412.738 394.954 412.738C389.549 398.704 381.111 386.871 381.111 386.871C369.385 372.409 336.967 390.533 336.967 390.533C312.754 400.388 311.482 426.365 311.482 426.365C309.006 442.097 327.109 476.055 327.109 476.055C325.149 481.941 322.126 487.352 322.126 487.352C322.126 487.352 310.67 504.656 300.312 495.561C289.94 486.496 273.527 427.017 273.527 427.017C272.264 421.835 271.168 421.829 271.168 421.829C264.649 417.737 250.476 425.388 250.476 425.388C235.391 431.88 242.429 449.352 242.429 449.352C257.745 493.514 254.986 501.645 254.986 501.645C253.765 520.398 235.872 520.63 235.872 520.63C229.868 521.577 221.961 512.556 221.961 512.556C214.7 504.592 206.302 479.138 206.302 479.138C199.618 453.58 186.732 454.763 186.732 454.763C169.594 456.387 161.175 466.716 161.175 466.716C171.55 492.699 195.493 531.26 195.493 531.26C192.195 541.832 186.463 545.999 180.796 547.695C175.135 549.4 170.094 548.861 162.194 548.858C154.284 548.835 149.512 549.499 149.512 549.499C142.875 549.407 133.297 553.825 133.297 553.825C127.97 554.741 131.742 550.086 131.742 550.086C140.099 532.135 134.16 523.19 135.004 521.972C135.794 520.747 106.894 452.322 106.894 452.322L86.9277 402.245C85.3647 398.489 86.0214 396.886 86.0214 396.886C86.0214 396.886 82.6192 385.584 91.1178 378.506C111.341 361.76 120.631 387.763 120.631 387.763C120.631 387.763 129.335 420.812 146.632 408.545C146.632 408.545 159.131 402.695 159.844 395.404C159.844 395.404 154.102 378.478 141.962 359.342C129.831 340.232 108.828 349.836 108.828 349.836C108.828 349.836 79.4517 358.365 67.6704 387.624C55.5913 417.702 68.7739 457.782 68.7739 457.782C68.7739 457.782 95.6518 527.103 105.386 544.816C112.57 557.857 107.2 560.753 107.2 560.753C107.2 560.753 109.052 562.814 99.3594 562.484C86.6568 562.033 77.8873 574.704 77.8873 574.704C77.8873 574.704 60.0105 598.808 71.3779 606.591C71.3779 606.591 89.2115 619.381 101.537 609.436C101.537 609.436 110.05 605.028 115.467 590.669C120.917 576.324 145.731 578.945 145.731 578.945C145.731 578.945 183.011 582.55 191.77 570.343C191.77 570.343 200.208 562.265 206.853 548.038C209.426 542.584 212.835 547.103 212.835 547.103C212.835 547.103 231.004 562.784 252.294 546.945C273.579 531.033 271.623 505.749 271.623 505.749C271.623 505.749 271.313 500.839 274.228 504.665C277.117 508.485 293.825 538.968 319.966 519.659C330.905 511.589 337.615 490.782 337.615 490.782C337.615 490.782 337.448 488.231 339.722 489.474C341.986 490.75 370.39 509.896 403.074 482.919C403.074 482.919 426.081 462.388 431.446 444.536C433.105 439.027 435.128 443.89 435.128 443.89L442.79 460.225C442.79 460.225 444.867 466.188 451.404 463.468L471.997 454.901C471.997 454.901 478.236 453.605 474.433 444.892L462.268 415.217C462.268 415.217 461.227 411.063 464.324 412.195C467.403 413.284 470.221 414.791 470.221 414.791L472.423 415.862C494.128 427.907 513.663 432.597 513.663 432.597C528.583 436.61 541.239 427.952 541.239 427.952C552.807 422.25 567.45 395.947 567.45 395.947C569.688 391.831 572.388 394.037 572.388 394.037C593.19 408.445 611.739 398.944 611.739 398.944C630.706 391.487 634.005 368.608 634.005 368.608C634.04 366.727 635.105 366.718 635.105 366.718C639.09 367.841 640.625 374.412 640.625 374.412C642.971 382.992 655.766 410.619 655.766 410.619C660.998 422.636 671.544 416.568 671.544 416.568C680.961 412.072 687.754 406.406 687.754 406.406C693.621 402.869 685.967 392.676 685.967 392.676L685.947 392.633ZM478.543 388.85L478.538 388.837C476.549 390.429 457.735 397.636 457.735 397.636C454.63 398.139 453.84 397.037 452.745 394.711C451.675 392.326 452.635 390.403 452.635 390.403L461.956 367.971C464.641 361.805 473.334 358.934 473.334 358.934C473.334 358.934 482.276 355.07 488.16 366.271C496.006 381.33 478.543 388.85 478.543 388.85ZM691.813 357.233C691.262 355.909 690.338 355.218 689.159 355.203C688.469 355.201 687.528 355.448 686.312 355.954L682.839 357.35L687.231 367.907L688.903 367.211L687.169 363.043L688.56 362.465C689.495 362.076 690.2 361.927 690.647 362.03C691.462 362.145 692.108 362.845 692.615 364.064L692.959 364.89L693.128 365.18L693.18 365.303C693.228 365.355 693.267 365.386 693.276 365.408L694.926 364.721L694.788 364.634C694.742 364.579 694.621 364.415 694.471 364.116C694.329 363.835 694.227 363.589 694.124 363.343L693.81 362.586C693.591 362.062 693.18 361.561 692.582 361.16C692.035 360.765 691.295 360.642 690.504 360.824C691.062 360.448 691.463 360.066 691.713 359.746C692.174 359.019 692.21 358.188 691.813 357.233ZM689.844 360.156C689.529 360.502 689.011 360.792 688.229 361.117L686.644 361.777L685.08 358.018L686.579 357.394C687.557 356.987 688.345 356.806 688.885 356.87L688.868 356.834C689.437 356.908 689.871 357.342 690.186 358.097C690.522 358.906 690.39 359.568 689.844 360.156ZM692.179 351.743C689.666 350.598 687.147 350.549 684.671 351.579C682.239 352.591 680.498 354.412 679.558 356.994C678.586 359.617 678.648 362.214 679.76 364.886C680.871 367.559 682.68 369.457 685.193 370.601C687.695 371.777 690.214 371.828 692.668 370.807C695.146 369.776 696.884 367.954 697.837 365.341C698.799 362.751 698.749 360.121 697.637 357.449C696.517 354.757 694.695 352.886 692.179 351.743ZM696.61 364.78C695.787 367.029 694.297 368.595 692.148 369.49C689.996 370.385 687.838 370.344 685.66 369.335C683.516 368.342 681.931 366.682 680.973 364.379C680.026 362.102 679.972 359.825 680.802 357.596C681.632 355.365 683.113 353.779 685.243 352.893C687.393 351.999 689.562 352.066 691.73 353.05C693.875 354.041 695.45 355.683 696.399 357.962C697.357 360.265 697.419 362.558 696.61 364.78Z" fill="#EEF0F2"/>
</g>
<defs>
<clipPath id="clip0_272_1358">
<rect width="700" height="800" fill="white"/>
</clipPath>
</defs>
</svg>
