<svg width="700" height="800" viewBox="0 0 700 800" fill="none" xmlns="http://www.w3.org/2000/svg">
<g clip-path="url(#clip0_229_2186)">
<path d="M624.829 184.274C624.829 184.274 291.862 255.78 54.3162 724.999C52.938 726.871 47.1163 738.257 28.5924 728.52C29.731 729.205 -6.44478 711.363 19.0785 662.301C21.4496 656.598 164.603 313.26 584.364 179.823C583.174 180.219 624.829 184.274 624.829 184.274" fill="#EEF0F2"/>
<path d="M422.469 456.481C306.299 554.36 168.688 501.096 167.917 498.728C116.405 335.667 290.472 228.494 290.472 228.494C414.512 149.998 588.587 188.264 588.587 188.264C545.737 383.412 421.277 456.872 422.469 456.481ZM226.458 189.168C226.458 189.168 22.9894 320.631 114.544 555.825C114.544 555.825 283.428 640.078 446.176 526.362C447.339 525.978 595.035 464.655 680.893 150.743C680.893 150.743 388.801 78.1758 226.458 189.168" fill="#EEF0F2"/>
</g>
<defs>
<clipPath id="clip0_229_2186">
<rect width="700" height="800" fill="white"/>
</clipPath>
</defs>
</svg>
