<svg width="700" height="800" viewBox="0 0 700 800" fill="none" xmlns="http://www.w3.org/2000/svg">
<g clip-path="url(#clip0_268_3618)">
<path fill-rule="evenodd" clip-rule="evenodd" d="M368.232 631.171C366.159 594.526 359.023 540.859 365.974 511.065C371.582 484.572 409.926 464.183 416.501 425.984C425.949 370.922 395.081 308.84 355.118 300.963C353.66 300.678 347.838 300.678 345.945 300.963C306.203 308.84 275.203 370.922 284.842 425.984C291.136 464.189 329.451 484.578 335.435 511.065C342.159 540.859 334.933 594.526 333.046 631.171C213.7 622.251 119.74 522.491 119.74 400.802C119.74 273.135 222.873 169.565 350.776 169.565C478.679 169.565 581.507 273.135 581.507 400.802C581.507 528.468 487.643 622.245 368.232 631.171ZM350.776 149C211.586 149 99 261.86 99 400.808C99 539.755 211.586 652.804 350.776 652.804C489.966 652.804 602.182 539.979 602.182 400.808C602.182 261.636 489.405 149 350.776 149Z" fill="#EEF0F2"/>
<path d="M270.699 382.717C238.087 371.782 193.388 357.455 170.039 349.961C156.214 345.143 142.204 357.328 142.204 400.83C142.204 444.332 155.778 456.717 170.039 451.923C193.042 444.326 237.066 430.187 269.642 419.417C269.057 415.011 268.836 410.254 268.836 405.43C268.836 397.596 269.552 389.968 270.699 382.723" fill="#EEF0F2"/>
<path d="M234.561 253.344C225.914 241.153 207.682 242.791 182.171 278.168C156.468 313.478 160.409 331.337 174.76 335.876C197.423 343.315 241.225 357.454 273.587 367.94C277.367 353.928 282.825 340.536 289.889 329.322C270.577 302.89 247.394 270.832 234.555 253.344" fill="#EEF0F2"/>
<path d="M343.397 287.303C343.397 259.644 343.307 230.511 343.307 213.151C343.397 198.096 327.596 188.708 286.39 202.252C244.982 215.863 237.535 232.429 246.588 244.529C258.61 261.319 280.281 290.932 298.758 316.885C311.281 301.138 326.843 290.234 343.397 287.303Z" fill="#EEF0F2"/>
<path d="M174.762 465.668C160.406 470.553 156.47 488.375 182.173 523.667C207.684 558.977 225.916 560.64 234.563 548.479C247.397 530.627 271.296 497.665 290.674 471.02C282.833 460.692 275.792 448.689 271.857 434.284C239.771 444.624 197.329 458.489 174.762 465.662" fill="#EEF0F2"/>
<path d="M324.24 543.783C324.24 531.531 323.219 521.386 321.762 514.341C319.684 505.954 311.783 496.282 303.351 486.27C302.294 485.299 301.118 484.091 300.341 482.805C281.429 509.11 258.957 539.978 246.589 557.017C237.536 569.433 244.977 586.09 286.391 599.415C300.652 603.924 311.998 605.938 320.585 605.781C320.771 604.488 320.771 603.068 321.015 601.806C322.502 582.091 324.24 561.799 324.24 543.789" fill="#EEF0F2"/>
<path d="M430.76 416.851C463.527 427.519 509.862 442.562 533.307 450.268C547.717 455.117 561.303 442.701 561.303 399.175C561.303 355.648 547.663 343.524 533.307 348.342C509.462 356.182 462.715 371.498 429.679 381.948C430.766 389.32 431.405 396.377 431.405 403.805C431.405 408.283 431.16 412.44 430.76 416.851Z" fill="#EEF0F2"/>
<path d="M530.004 335.885C544.258 331.346 548.039 313.488 522.629 278.178C496.872 242.807 478.635 241.138 470.113 253.353C456.873 271.594 432.509 305.011 413.011 332.044C419.43 343.325 424.483 355.764 427.833 369.12C460.57 358.434 506.362 343.731 530.004 335.885Z" fill="#EEF0F2"/>
<path d="M404.362 318.984C423.156 292.655 445.812 261.884 458.216 244.529C466.994 232.429 459.643 215.863 418.289 202.252C376.868 188.708 361.312 198.096 361.437 213.151V288.28C377.424 292.115 392.329 303.304 404.362 318.984Z" fill="#EEF0F2"/>
<path d="M470.134 548.456C478.656 560.617 496.887 558.948 522.65 523.601C548.066 488.358 544.285 470.536 530.025 465.651C506.753 458.472 461.827 444.042 429.12 433.144C425.955 447.004 419.475 458.478 412.226 468.74C431.759 495.803 456.745 529.857 470.134 548.468" fill="#EEF0F2"/>
<path d="M379.546 514.133C377.82 521.415 377.223 531.561 377.223 543.812C377.223 561.822 378.716 582.272 380.388 601.829C380.388 603.091 380.447 604.414 380.633 605.804C389.566 606.465 401.713 604.827 418.302 599.438C459.657 586.143 467.008 569.456 458.23 557.041C445.241 539.552 422.017 507.118 402.674 480.595C401.217 482.7 399.42 484.551 398.022 486.299C389.375 496.317 381.283 505.99 379.54 514.139" fill="#EEF0F2"/>
</g>
<defs>
<clipPath id="clip0_268_3618">
<rect width="502" height="502" fill="white" transform="translate(99 149)"/>
</clipPath>
</defs>
</svg>
