<svg width="700" height="800" viewBox="0 0 700 800" fill="none" xmlns="http://www.w3.org/2000/svg">
<path d="M540.031 266.377C540.031 357.52 483.831 432.169 391.807 432.169C354.386 432.169 323.714 427.691 306.082 420.519V654.72C306.082 671.922 340.845 678.951 367.576 678.951C370.227 678.951 374.956 680.384 374.956 688.121C374.956 695.437 370.227 697.292 367.576 697.292H167.315C164.736 697.292 160 695.429 160 688.121C160 680.384 164.729 678.951 167.315 678.951C194.118 678.951 217.49 671.929 217.49 654.72V145.644C217.49 128.406 194.118 121.342 167.315 121.342C164.729 121.342 160 119.873 160 112.242C160 104.827 164.729 103 167.315 103H367.576C451.002 103 540.031 172.412 540.031 266.377ZM307.937 379.272C307.937 401.561 319.336 406.584 346.928 406.584C403.909 406.584 448.566 346.443 448.566 259.607C448.566 169.94 404.84 122.166 362.131 122.166C320.339 122.166 307.944 135.571 307.944 160.368L307.937 379.272Z" fill="#EEF0F2"/>
</svg>
