<svg width="700" height="800" viewBox="0 0 700 800" fill="none" xmlns="http://www.w3.org/2000/svg">
<path d="M71 636V706.816C71 711.835 71.9254 716 73.0071 716H627.992C629.09 716 630 711.835 630 706.816V636H71Z" fill="#EEF0F2"/>
<path d="M163.63 337.566C153.984 358.032 111.938 470.992 107 521.516C137.012 540.496 221.576 541.908 252.983 516.518C254.757 495.701 288.088 414.438 292.877 404.436C293.801 439.835 294.421 538.396 415.25 533.17C536.078 527.902 584.377 390.957 587.305 377.51C590.314 364.074 588.85 358.757 575.271 367.734C561.698 376.748 468.332 423.489 464.089 371.326C490.626 363.301 625.654 279.981 587.305 204.828C552.66 136.853 286.853 144.301 177.675 178.399C162.241 196.618 131.77 258.022 122.273 319.163C119.183 338.634 131.305 339.439 140.405 337.185C149.431 334.889 161.236 337.259 163.63 337.566ZM308.379 352.88C308.379 352.88 324.892 307.588 325.351 304.229C325.891 300.864 334.917 296.093 340.394 296.013C345.952 296.013 433.37 289.296 433.37 323.701C433.376 350.707 333.992 363.301 308.379 352.88Z" fill="#EEF0F2"/>
</svg>
