<svg width="700" height="800" viewBox="0 0 700 800" fill="none" xmlns="http://www.w3.org/2000/svg">
<path d="M365.376 558.557C365.376 459.391 218.88 449.726 218.88 309.59C218.88 208.529 297.699 157.769 375.367 149.75C367.989 149.458 360.715 149 350.432 149C331.307 149 321.693 149.791 305.976 150.521C159.876 157.561 82.1655 236.46 77.1701 356.601C76.6894 364.828 76 377.742 76 399.633C76 420.149 76.6266 433.98 77.1701 441.457C82.0609 558.848 155.947 636.144 294.082 647.267C316.802 642.33 365.376 625.875 365.376 558.557Z" fill="#EEF0F2"/>
<path d="M622.056 356.84C617.548 242.672 547.163 166.1 416.058 152.414C392.889 156.983 346.8 174.78 346.8 240.71C346.8 339.794 493.477 348.891 493.477 490.078C493.477 577.436 427.267 641.635 327.848 649.814C334.256 649.855 340.747 650.001 349.848 650.001C368.508 650.001 377.63 649.521 393.953 648.749C539.607 640.946 617.318 562.789 622.015 441.861C622.307 434.308 623.142 420.496 623.142 399.903C623.142 377.996 622.328 365.04 622.077 356.819" fill="#EEF0F2"/>
</svg>
