<svg width="700" height="800" viewBox="0 0 700 800" fill="none" xmlns="http://www.w3.org/2000/svg">
<g clip-path="url(#clip0_271_4119)">
<path d="M1540.34 626.536C1540.34 623.991 1539.25 621.446 1537.07 620.173C1534.88 618.9 1532.34 618.718 1529.98 618.718H1517.07V648.354H1520.7V634.718H1527.43L1535.79 648.354H1540.16L1531.25 634.718C1536.16 634.536 1540.34 632.354 1540.34 626.536ZM1525.98 631.809H1520.52V621.264H1528.88C1532.52 621.264 1536.52 621.991 1536.52 626.536C1536.7 632.536 1530.16 631.809 1525.98 631.809ZM1526.7 607.082C1511.98 607.082 1500.16 618.9 1500.16 633.445C1500.16 648.172 1511.98 659.99 1526.7 659.99C1541.25 659.99 1553.07 648.172 1553.07 633.445C1553.07 618.9 1541.25 607.082 1526.7 607.082ZM1526.7 656.899C1513.79 656.899 1503.43 646.536 1503.43 633.627C1503.43 620.9 1513.79 610.355 1526.7 610.355C1539.43 610.355 1549.97 620.718 1549.97 633.627C1549.97 646.354 1539.61 656.899 1526.7 656.899ZM348.906 489.63L301.452 150.909H182L281.635 651.627H416.177L515.63 150.909H395.996L348.906 489.63ZM1055.07 439.267L993.44 150.909H849.806V651.627H962.349V353.996L1030.35 651.627H1168.16V150.909H1055.26V439.267H1055.07ZM744.899 153.091C713.99 140.909 673.991 142.545 669.264 142.545C664.536 142.545 624.537 141.091 593.629 153.091C533.993 176.363 521.448 228.544 521.448 257.816V545.083C521.448 574.174 533.993 626.355 593.629 649.627C624.537 661.809 664.355 660.354 669.264 660.354C674.173 660.354 713.99 661.809 744.899 649.627C804.534 626.355 817.079 574.174 817.079 545.083V257.816C817.261 228.362 804.716 176.363 744.899 153.091ZM698.899 520.538C698.899 536.902 685.627 549.992 669.264 549.992C653.082 549.992 639.81 536.902 639.81 520.538V281.997C639.81 265.452 653.082 252.362 669.264 252.362C685.627 252.362 698.899 265.634 698.899 281.997V520.538ZM1455.98 395.45C1423.61 367.632 1364.34 345.451 1349.25 336.905C1317.25 319.451 1311.8 303.27 1311.8 286.361C1311.8 275.997 1319.62 251.816 1346.34 251.816C1375.43 251.816 1378.89 271.998 1378.89 285.634V328.724H1494.88L1495.25 282.179C1495.43 226.908 1479.79 142 1349.25 142C1211.8 142 1195.62 226.908 1195.62 282.361C1195.62 327.997 1201.98 369.268 1236.53 399.632C1268.53 428.176 1327.98 447.267 1343.61 455.812C1375.25 473.448 1380.52 490.721 1380.52 506.902C1380.52 533.993 1372.71 550.538 1349.43 550.538C1322.71 550.538 1313.43 528.538 1313.43 514.902V462.358H1197.8C1197.8 474.176 1197.25 554.356 1202.34 570.174C1207.44 585.81 1219.25 660.172 1349.07 660.172C1477.79 660.172 1500.88 579.628 1500.88 512.902C1500.52 467.267 1497.98 431.631 1455.98 395.45Z" fill="#EEF0F2"/>
</g>
<defs>
<clipPath id="clip0_271_4119">
<rect width="335.903" height="515.573" fill="white" transform="translate(182 142)"/>
</clipPath>
</defs>
</svg>
