<svg width="700" height="800" viewBox="0 0 700 800" fill="none" xmlns="http://www.w3.org/2000/svg">
<g opacity="0.2">
<path d="M39.2507 204.294C28.502 207.174 17.4373 200.77 14.5482 189.987C11.6607 179.211 18.0399 168.129 28.7885 165.249C39.5403 162.368 50.6058 168.776 53.4933 179.552C54.8657 184.674 54.1478 189.855 51.8639 194.201C82.1856 226.52 126.432 188.588 99.5879 149.182C89.5817 150.682 79.8137 144.438 77.1258 134.406C74.2383 123.63 80.6144 112.549 91.3631 109.669C102.115 106.788 113.18 113.196 116.068 123.972C117.9 130.811 116.001 137.773 111.622 142.688C138.672 181.683 192.296 145.702 169.266 103.176C160.153 103.417 151.716 97.4002 149.247 88.1845C146.359 77.4082 152.735 66.3271 163.487 63.4462C174.239 60.5652 185.303 66.9698 188.192 77.7492C190.161 85.0996 187.824 92.5879 182.727 97.5233C197.702 144.372 259.113 123.269 243.706 72.2535C235.964 71.1278 229.241 65.5161 227.084 57.4639C224.196 46.6876 230.572 35.6065 241.327 32.7247C252.073 29.8455 263.138 36.25 266.026 47.0294C268.249 55.3247 264.983 63.7941 258.466 68.5756C270.803 120.242 334.494 107.65 323.8 59.4753C317.129 57.6274 311.575 52.3855 309.651 45.2044C306.763 34.4281 313.139 23.347 323.894 20.4652C334.643 17.5851 345.704 23.9905 348.593 34.7699C351.103 44.1395 346.614 53.7386 338.335 57.979C339.751 106.307 404.31 110.545 408.032 63.0208C401.965 60.8756 397.017 55.8673 395.224 49.1756C392.336 38.3993 398.712 27.3182 409.467 24.4365C420.216 21.5564 431.278 27.9648 434.166 38.7411C436.894 48.9233 431.355 59.3711 421.676 62.9278C418.171 110.562 475.724 121.197 485.6 77.6783C481.614 75.048 478.539 70.9994 477.206 66.0253C474.318 55.249 480.694 44.1679 491.449 41.2861C502.198 38.406 513.26 44.8145 516.148 55.5908C519.036 66.3702 512.66 77.4513 501.911 80.3314C500.625 80.6761 499.329 80.8879 498.049 80.9736C492.865 102.408 475.024 176.059 467.502 205.988C360.916 161.408 200.407 204.416 131.454 296.032C110.001 273.9 57.8307 219.146 42.5503 203.1C41.5077 203.581 40.405 203.985 39.2507 204.294Z" fill="#CCCED0"/>
<path d="M242.251 517.706C281.32 663.514 355.625 696.191 355.625 696.191C408.557 660.884 437.556 650.244 484.563 649.964C484.563 649.964 523.383 566.521 492.347 450.693C409.82 142.683 159.72 209.697 242.251 517.706ZM622.851 415.725C668.862 587.441 567.567 671.534 567.567 671.534C615.474 690.715 641.645 663.822 672.341 611.327C679.978 629.649 718.948 756.593 605.76 786.922C556.662 800.078 505.029 759.699 472.641 730.574C369.468 769.825 168.203 785.132 106.307 554.132C15.019 213.44 531.56 75.0203 622.851 415.725ZM427.486 725.152C445.164 720.415 451.756 706.947 451.756 706.947C451.756 706.947 426.883 690.248 405.122 696.078C391.542 699.717 378.051 709.175 378.051 709.175C378.051 709.175 408.454 730.251 427.486 725.152Z" fill="#CCCED0"/>
</g>
</svg>
