<svg width="1440" height="800" viewBox="0 0 1440 800" fill="none" xmlns="http://www.w3.org/2000/svg">
<g clip-path="url(#clip0_248_999)">
<g opacity="0.2">
<path d="M779.251 204.294C768.502 207.174 757.437 200.77 754.548 189.987C751.661 179.211 758.04 168.129 768.789 165.249C779.54 162.368 790.606 168.776 793.493 179.552C794.866 184.674 794.148 189.855 791.864 194.201C822.186 226.52 866.432 188.588 839.588 149.182C829.582 150.682 819.814 144.438 817.126 134.406C814.238 123.63 820.614 112.549 831.363 109.669C842.115 106.788 853.18 113.196 856.068 123.972C857.9 130.811 856.001 137.773 851.622 142.688C878.672 181.683 932.296 145.702 909.266 103.176C900.153 103.417 891.716 97.4002 889.247 88.1845C886.359 77.4082 892.735 66.3271 903.487 63.4462C914.239 60.5652 925.303 66.9698 928.192 77.7492C930.161 85.0996 927.824 92.5879 922.727 97.5233C937.702 144.372 999.113 123.269 983.706 72.2535C975.964 71.1278 969.241 65.5161 967.084 57.4639C964.196 46.6876 970.572 35.6065 981.327 32.7247C992.073 29.8455 1003.14 36.25 1006.03 47.0294C1008.25 55.3247 1004.98 63.7941 998.466 68.5756C1010.8 120.242 1074.49 107.65 1063.8 59.4753C1057.13 57.6274 1051.57 52.3855 1049.65 45.2044C1046.76 34.4281 1053.14 23.347 1063.89 20.4652C1074.64 17.5851 1085.7 23.9905 1088.59 34.7699C1091.1 44.1395 1086.61 53.7386 1078.34 57.979C1079.75 106.307 1144.31 110.545 1148.03 63.0208C1141.97 60.8756 1137.02 55.8673 1135.22 49.1756C1132.34 38.3993 1138.71 27.3182 1149.47 24.4365C1160.22 21.5564 1171.28 27.9648 1174.17 38.7411C1176.89 48.9233 1171.36 59.3711 1161.68 62.9278C1158.17 110.562 1215.72 121.197 1225.6 77.6783C1221.61 75.048 1218.54 70.9994 1217.21 66.0253C1214.32 55.249 1220.69 44.1679 1231.45 41.2861C1242.2 38.406 1253.26 44.8145 1256.15 55.5908C1259.04 66.3702 1252.66 77.4513 1241.91 80.3314C1240.63 80.6761 1239.33 80.8879 1238.05 80.9736C1232.86 102.408 1215.02 176.059 1207.5 205.988C1100.92 161.408 940.407 204.416 871.454 296.032C850.001 273.9 797.831 219.146 782.55 203.1C781.508 203.581 780.405 203.985 779.251 204.294Z" fill="#CCCED0"/>
<path d="M982.251 517.706C1021.32 663.514 1095.62 696.191 1095.62 696.191C1148.56 660.884 1177.56 650.243 1224.56 649.963C1224.56 649.963 1263.38 566.52 1232.35 450.693C1149.82 142.683 899.72 209.697 982.251 517.706ZM1362.85 415.725C1408.86 587.44 1307.57 671.534 1307.57 671.534C1355.47 690.715 1381.64 663.822 1412.34 611.327C1419.98 629.649 1458.95 756.593 1345.76 786.922C1296.66 800.077 1245.03 759.699 1212.64 730.574C1109.47 769.825 908.203 785.131 846.307 554.132C755.019 213.44 1271.56 75.0202 1362.85 415.725ZM1167.49 725.152C1185.16 720.415 1191.76 706.947 1191.76 706.947C1191.76 706.947 1166.88 690.247 1145.12 696.078C1131.54 699.717 1118.05 709.174 1118.05 709.174C1118.05 709.174 1148.45 730.251 1167.49 725.152Z" fill="#CCCED0"/>
</g>
</g>
<defs>
<clipPath id="clip0_248_999">
<rect width="1440" height="800" fill="white"/>
</clipPath>
</defs>
</svg>
